<?xml version="1.0" encoding="utf-8" standalone="no"?>
<!DOCTYPE svg PUBLIC "-//W3C//DTD SVG 1.1//EN"
  "http://www.w3.org/Graphics/SVG/1.1/DTD/svg11.dtd">
<svg xmlns:xlink="http://www.w3.org/1999/xlink" width="460.8pt" height="345.6pt" viewBox="0 0 460.8 345.6" xmlns="http://www.w3.org/2000/svg" version="1.1">
 <metadata>
  <rdf:RDF xmlns:dc="http://purl.org/dc/elements/1.1/" xmlns:cc="http://creativecommons.org/ns#" xmlns:rdf="http://www.w3.org/1999/02/22-rdf-syntax-ns#">
   <cc:Work>
    <dc:type rdf:resource="http://purl.org/dc/dcmitype/StillImage"/>
    <dc:date>2024-05-08T11:21:00.335562</dc:date>
    <dc:format>image/svg+xml</dc:format>
    <dc:creator>
     <cc:Agent>
      <dc:title>Matplotlib v3.8.4, https://matplotlib.org/</dc:title>
     </cc:Agent>
    </dc:creator>
   </cc:Work>
  </rdf:RDF>
 </metadata>
 <defs>
  <style type="text/css">*{stroke-linejoin: round; stroke-linecap: butt}</style>
 </defs>
 <g id="figure_1">
  <g id="patch_1">
   <path d="M 0 345.6 
L 460.8 345.6 
L 460.8 0 
L 0 0 
z
" style="fill: #ffffff"/>
  </g>
  <g id="axes_1">
   <g id="patch_2">
    <path d="M 57.6 307.584 
L 414.72 307.584 
L 414.72 41.472 
L 57.6 41.472 
z
" style="fill: #ffffff"/>
   </g>
   <g id="patch_3">
    <path d="M 57.6 53.568 
L 397.714286 53.568 
L 397.714286 63.342545 
L 57.6 63.342545 
z
" clip-path="url(#pdfcd55568c)" style="fill: #1f77b4"/>
   </g>
   <g id="patch_4">
    <path d="M 57.6 65.786182 
L 331.255172 65.786182 
L 331.255172 75.560727 
L 57.6 75.560727 
z
" clip-path="url(#pdfcd55568c)" style="fill: #1f77b4"/>
   </g>
   <g id="patch_5">
    <path d="M 57.6 78.004364 
L 267.728079 78.004364 
L 267.728079 87.778909 
L 57.6 87.778909 
z
" clip-path="url(#pdfcd55568c)" style="fill: #1f77b4"/>
   </g>
   <g id="patch_6">
    <path d="M 57.6 90.222545 
L 243.294581 90.222545 
L 243.294581 99.997091 
L 57.6 99.997091 
z
" clip-path="url(#pdfcd55568c)" style="fill: #1f77b4"/>
   </g>
   <g id="patch_7">
    <path d="M 57.6 102.440727 
L 237.430542 102.440727 
L 237.430542 112.215273 
L 57.6 112.215273 
z
" clip-path="url(#pdfcd55568c)" style="fill: #1f77b4"/>
   </g>
   <g id="patch_8">
    <path d="M 57.6 114.658909 
L 193.450246 114.658909 
L 193.450246 124.433455 
L 57.6 124.433455 
z
" clip-path="url(#pdfcd55568c)" style="fill: #1f77b4"/>
   </g>
   <g id="patch_9">
    <path d="M 57.6 126.877091 
L 178.790148 126.877091 
L 178.790148 136.651636 
L 57.6 136.651636 
z
" clip-path="url(#pdfcd55568c)" style="fill: #1f77b4"/>
   </g>
   <g id="patch_10">
    <path d="M 57.6 139.095273 
L 176.835468 139.095273 
L 176.835468 148.869818 
L 57.6 148.869818 
z
" clip-path="url(#pdfcd55568c)" style="fill: #1f77b4"/>
   </g>
   <g id="patch_11">
    <path d="M 57.6 151.313455 
L 165.107389 151.313455 
L 165.107389 161.088 
L 57.6 161.088 
z
" clip-path="url(#pdfcd55568c)" style="fill: #1f77b4"/>
   </g>
   <g id="patch_12">
    <path d="M 57.6 163.531636 
L 161.19803 163.531636 
L 161.19803 173.306182 
L 57.6 173.306182 
z
" clip-path="url(#pdfcd55568c)" style="fill: #1f77b4"/>
   </g>
   <g id="patch_13">
    <path d="M 57.6 175.749818 
L 155.33399 175.749818 
L 155.33399 185.524364 
L 57.6 185.524364 
z
" clip-path="url(#pdfcd55568c)" style="fill: #1f77b4"/>
   </g>
   <g id="patch_14">
    <path d="M 57.6 187.968 
L 152.40197 187.968 
L 152.40197 197.742545 
L 57.6 197.742545 
z
" clip-path="url(#pdfcd55568c)" style="fill: #1f77b4"/>
   </g>
   <g id="patch_15">
    <path d="M 57.6 200.186182 
L 149.469951 200.186182 
L 149.469951 209.960727 
L 57.6 209.960727 
z
" clip-path="url(#pdfcd55568c)" style="fill: #1f77b4"/>
   </g>
   <g id="patch_16">
    <path d="M 57.6 212.404364 
L 149.469951 212.404364 
L 149.469951 222.178909 
L 57.6 222.178909 
z
" clip-path="url(#pdfcd55568c)" style="fill: #1f77b4"/>
   </g>
   <g id="patch_17">
    <path d="M 57.6 224.622545 
L 137.741872 224.622545 
L 137.741872 234.397091 
L 57.6 234.397091 
z
" clip-path="url(#pdfcd55568c)" style="fill: #1f77b4"/>
   </g>
   <g id="patch_18">
    <path d="M 57.6 236.840727 
L 133.832512 236.840727 
L 133.832512 246.615273 
L 57.6 246.615273 
z
" clip-path="url(#pdfcd55568c)" style="fill: #1f77b4"/>
   </g>
   <g id="patch_19">
    <path d="M 57.6 249.058909 
L 121.127094 249.058909 
L 121.127094 258.833455 
L 57.6 258.833455 
z
" clip-path="url(#pdfcd55568c)" style="fill: #1f77b4"/>
   </g>
   <g id="patch_20">
    <path d="M 57.6 261.277091 
L 119.172414 261.277091 
L 119.172414 271.051636 
L 57.6 271.051636 
z
" clip-path="url(#pdfcd55568c)" style="fill: #1f77b4"/>
   </g>
   <g id="patch_21">
    <path d="M 57.6 273.495273 
L 115.263054 273.495273 
L 115.263054 283.269818 
L 57.6 283.269818 
z
" clip-path="url(#pdfcd55568c)" style="fill: #1f77b4"/>
   </g>
   <g id="patch_22">
    <path d="M 57.6 285.713455 
L 115.263054 285.713455 
L 115.263054 295.488 
L 57.6 295.488 
z
" clip-path="url(#pdfcd55568c)" style="fill: #1f77b4"/>
   </g>
   <g id="matplotlib.axis_1">
    <g id="xtick_1">
     <g id="line2d_1">
      <defs>
       <path id="mea226d888e" d="M 0 0 
L 0 3.5 
" style="stroke: #000000; stroke-width: 0.8"/>
      </defs>
      <g>
       <use xlink:href="#mea226d888e" x="57.6" y="307.584" style="stroke: #000000; stroke-width: 0.8"/>
      </g>
     </g>
     <g id="text_1">
      <!-- 0 -->
      <g transform="translate(54.41875 322.182437) scale(0.1 -0.1)">
       <defs>
        <path id="DejaVuSans-30" d="M 2034 4250 
Q 1547 4250 1301 3770 
Q 1056 3291 1056 2328 
Q 1056 1369 1301 889 
Q 1547 409 2034 409 
Q 2525 409 2770 889 
Q 3016 1369 3016 2328 
Q 3016 3291 2770 3770 
Q 2525 4250 2034 4250 
z
M 2034 4750 
Q 2819 4750 3233 4129 
Q 3647 3509 3647 2328 
Q 3647 1150 3233 529 
Q 2819 -91 2034 -91 
Q 1250 -91 836 529 
Q 422 1150 422 2328 
Q 422 3509 836 4129 
Q 1250 4750 2034 4750 
z
" transform="scale(0.015625)"/>
       </defs>
       <use xlink:href="#DejaVuSans-30"/>
      </g>
     </g>
    </g>
    <g id="xtick_2">
     <g id="line2d_2">
      <g>
       <use xlink:href="#mea226d888e" x="106.466995" y="307.584" style="stroke: #000000; stroke-width: 0.8"/>
      </g>
     </g>
     <g id="text_2">
      <!-- 50 -->
      <g transform="translate(100.104495 322.182437) scale(0.1 -0.1)">
       <defs>
        <path id="DejaVuSans-35" d="M 691 4666 
L 3169 4666 
L 3169 4134 
L 1269 4134 
L 1269 2991 
Q 1406 3038 1543 3061 
Q 1681 3084 1819 3084 
Q 2600 3084 3056 2656 
Q 3513 2228 3513 1497 
Q 3513 744 3044 326 
Q 2575 -91 1722 -91 
Q 1428 -91 1123 -41 
Q 819 9 494 109 
L 494 744 
Q 775 591 1075 516 
Q 1375 441 1709 441 
Q 2250 441 2565 725 
Q 2881 1009 2881 1497 
Q 2881 1984 2565 2268 
Q 2250 2553 1709 2553 
Q 1456 2553 1204 2497 
Q 953 2441 691 2322 
L 691 4666 
z
" transform="scale(0.015625)"/>
       </defs>
       <use xlink:href="#DejaVuSans-35"/>
       <use xlink:href="#DejaVuSans-30" x="63.623047"/>
      </g>
     </g>
    </g>
    <g id="xtick_3">
     <g id="line2d_3">
      <g>
       <use xlink:href="#mea226d888e" x="155.33399" y="307.584" style="stroke: #000000; stroke-width: 0.8"/>
      </g>
     </g>
     <g id="text_3">
      <!-- 100 -->
      <g transform="translate(145.79024 322.182437) scale(0.1 -0.1)">
       <defs>
        <path id="DejaVuSans-31" d="M 794 531 
L 1825 531 
L 1825 4091 
L 703 3866 
L 703 4441 
L 1819 4666 
L 2450 4666 
L 2450 531 
L 3481 531 
L 3481 0 
L 794 0 
L 794 531 
z
" transform="scale(0.015625)"/>
       </defs>
       <use xlink:href="#DejaVuSans-31"/>
       <use xlink:href="#DejaVuSans-30" x="63.623047"/>
       <use xlink:href="#DejaVuSans-30" x="127.246094"/>
      </g>
     </g>
    </g>
    <g id="xtick_4">
     <g id="line2d_4">
      <g>
       <use xlink:href="#mea226d888e" x="204.200985" y="307.584" style="stroke: #000000; stroke-width: 0.8"/>
      </g>
     </g>
     <g id="text_4">
      <!-- 150 -->
      <g transform="translate(194.657235 322.182437) scale(0.1 -0.1)">
       <use xlink:href="#DejaVuSans-31"/>
       <use xlink:href="#DejaVuSans-35" x="63.623047"/>
       <use xlink:href="#DejaVuSans-30" x="127.246094"/>
      </g>
     </g>
    </g>
    <g id="xtick_5">
     <g id="line2d_5">
      <g>
       <use xlink:href="#mea226d888e" x="253.06798" y="307.584" style="stroke: #000000; stroke-width: 0.8"/>
      </g>
     </g>
     <g id="text_5">
      <!-- 200 -->
      <g transform="translate(243.52423 322.182437) scale(0.1 -0.1)">
       <defs>
        <path id="DejaVuSans-32" d="M 1228 531 
L 3431 531 
L 3431 0 
L 469 0 
L 469 531 
Q 828 903 1448 1529 
Q 2069 2156 2228 2338 
Q 2531 2678 2651 2914 
Q 2772 3150 2772 3378 
Q 2772 3750 2511 3984 
Q 2250 4219 1831 4219 
Q 1534 4219 1204 4116 
Q 875 4013 500 3803 
L 500 4441 
Q 881 4594 1212 4672 
Q 1544 4750 1819 4750 
Q 2544 4750 2975 4387 
Q 3406 4025 3406 3419 
Q 3406 3131 3298 2873 
Q 3191 2616 2906 2266 
Q 2828 2175 2409 1742 
Q 1991 1309 1228 531 
z
" transform="scale(0.015625)"/>
       </defs>
       <use xlink:href="#DejaVuSans-32"/>
       <use xlink:href="#DejaVuSans-30" x="63.623047"/>
       <use xlink:href="#DejaVuSans-30" x="127.246094"/>
      </g>
     </g>
    </g>
    <g id="xtick_6">
     <g id="line2d_6">
      <g>
       <use xlink:href="#mea226d888e" x="301.934975" y="307.584" style="stroke: #000000; stroke-width: 0.8"/>
      </g>
     </g>
     <g id="text_6">
      <!-- 250 -->
      <g transform="translate(292.391225 322.182437) scale(0.1 -0.1)">
       <use xlink:href="#DejaVuSans-32"/>
       <use xlink:href="#DejaVuSans-35" x="63.623047"/>
       <use xlink:href="#DejaVuSans-30" x="127.246094"/>
      </g>
     </g>
    </g>
    <g id="xtick_7">
     <g id="line2d_7">
      <g>
       <use xlink:href="#mea226d888e" x="350.80197" y="307.584" style="stroke: #000000; stroke-width: 0.8"/>
      </g>
     </g>
     <g id="text_7">
      <!-- 300 -->
      <g transform="translate(341.25822 322.182437) scale(0.1 -0.1)">
       <defs>
        <path id="DejaVuSans-33" d="M 2597 2516 
Q 3050 2419 3304 2112 
Q 3559 1806 3559 1356 
Q 3559 666 3084 287 
Q 2609 -91 1734 -91 
Q 1441 -91 1130 -33 
Q 819 25 488 141 
L 488 750 
Q 750 597 1062 519 
Q 1375 441 1716 441 
Q 2309 441 2620 675 
Q 2931 909 2931 1356 
Q 2931 1769 2642 2001 
Q 2353 2234 1838 2234 
L 1294 2234 
L 1294 2753 
L 1863 2753 
Q 2328 2753 2575 2939 
Q 2822 3125 2822 3475 
Q 2822 3834 2567 4026 
Q 2313 4219 1838 4219 
Q 1578 4219 1281 4162 
Q 984 4106 628 3988 
L 628 4550 
Q 988 4650 1302 4700 
Q 1616 4750 1894 4750 
Q 2613 4750 3031 4423 
Q 3450 4097 3450 3541 
Q 3450 3153 3228 2886 
Q 3006 2619 2597 2516 
z
" transform="scale(0.015625)"/>
       </defs>
       <use xlink:href="#DejaVuSans-33"/>
       <use xlink:href="#DejaVuSans-30" x="63.623047"/>
       <use xlink:href="#DejaVuSans-30" x="127.246094"/>
      </g>
     </g>
    </g>
    <g id="xtick_8">
     <g id="line2d_8">
      <g>
       <use xlink:href="#mea226d888e" x="399.668966" y="307.584" style="stroke: #000000; stroke-width: 0.8"/>
      </g>
     </g>
     <g id="text_8">
      <!-- 350 -->
      <g transform="translate(390.125216 322.182437) scale(0.1 -0.1)">
       <use xlink:href="#DejaVuSans-33"/>
       <use xlink:href="#DejaVuSans-35" x="63.623047"/>
       <use xlink:href="#DejaVuSans-30" x="127.246094"/>
      </g>
     </g>
    </g>
    <g id="text_9">
     <!-- Predicate Quantity -->
     <g transform="translate(189.604531 335.860562) scale(0.1 -0.1)">
      <defs>
       <path id="DejaVuSans-50" d="M 1259 4147 
L 1259 2394 
L 2053 2394 
Q 2494 2394 2734 2622 
Q 2975 2850 2975 3272 
Q 2975 3691 2734 3919 
Q 2494 4147 2053 4147 
L 1259 4147 
z
M 628 4666 
L 2053 4666 
Q 2838 4666 3239 4311 
Q 3641 3956 3641 3272 
Q 3641 2581 3239 2228 
Q 2838 1875 2053 1875 
L 1259 1875 
L 1259 0 
L 628 0 
L 628 4666 
z
" transform="scale(0.015625)"/>
       <path id="DejaVuSans-72" d="M 2631 2963 
Q 2534 3019 2420 3045 
Q 2306 3072 2169 3072 
Q 1681 3072 1420 2755 
Q 1159 2438 1159 1844 
L 1159 0 
L 581 0 
L 581 3500 
L 1159 3500 
L 1159 2956 
Q 1341 3275 1631 3429 
Q 1922 3584 2338 3584 
Q 2397 3584 2469 3576 
Q 2541 3569 2628 3553 
L 2631 2963 
z
" transform="scale(0.015625)"/>
       <path id="DejaVuSans-65" d="M 3597 1894 
L 3597 1613 
L 953 1613 
Q 991 1019 1311 708 
Q 1631 397 2203 397 
Q 2534 397 2845 478 
Q 3156 559 3463 722 
L 3463 178 
Q 3153 47 2828 -22 
Q 2503 -91 2169 -91 
Q 1331 -91 842 396 
Q 353 884 353 1716 
Q 353 2575 817 3079 
Q 1281 3584 2069 3584 
Q 2775 3584 3186 3129 
Q 3597 2675 3597 1894 
z
M 3022 2063 
Q 3016 2534 2758 2815 
Q 2500 3097 2075 3097 
Q 1594 3097 1305 2825 
Q 1016 2553 972 2059 
L 3022 2063 
z
" transform="scale(0.015625)"/>
       <path id="DejaVuSans-64" d="M 2906 2969 
L 2906 4863 
L 3481 4863 
L 3481 0 
L 2906 0 
L 2906 525 
Q 2725 213 2448 61 
Q 2172 -91 1784 -91 
Q 1150 -91 751 415 
Q 353 922 353 1747 
Q 353 2572 751 3078 
Q 1150 3584 1784 3584 
Q 2172 3584 2448 3432 
Q 2725 3281 2906 2969 
z
M 947 1747 
Q 947 1113 1208 752 
Q 1469 391 1925 391 
Q 2381 391 2643 752 
Q 2906 1113 2906 1747 
Q 2906 2381 2643 2742 
Q 2381 3103 1925 3103 
Q 1469 3103 1208 2742 
Q 947 2381 947 1747 
z
" transform="scale(0.015625)"/>
       <path id="DejaVuSans-69" d="M 603 3500 
L 1178 3500 
L 1178 0 
L 603 0 
L 603 3500 
z
M 603 4863 
L 1178 4863 
L 1178 4134 
L 603 4134 
L 603 4863 
z
" transform="scale(0.015625)"/>
       <path id="DejaVuSans-63" d="M 3122 3366 
L 3122 2828 
Q 2878 2963 2633 3030 
Q 2388 3097 2138 3097 
Q 1578 3097 1268 2742 
Q 959 2388 959 1747 
Q 959 1106 1268 751 
Q 1578 397 2138 397 
Q 2388 397 2633 464 
Q 2878 531 3122 666 
L 3122 134 
Q 2881 22 2623 -34 
Q 2366 -91 2075 -91 
Q 1284 -91 818 406 
Q 353 903 353 1747 
Q 353 2603 823 3093 
Q 1294 3584 2113 3584 
Q 2378 3584 2631 3529 
Q 2884 3475 3122 3366 
z
" transform="scale(0.015625)"/>
       <path id="DejaVuSans-61" d="M 2194 1759 
Q 1497 1759 1228 1600 
Q 959 1441 959 1056 
Q 959 750 1161 570 
Q 1363 391 1709 391 
Q 2188 391 2477 730 
Q 2766 1069 2766 1631 
L 2766 1759 
L 2194 1759 
z
M 3341 1997 
L 3341 0 
L 2766 0 
L 2766 531 
Q 2569 213 2275 61 
Q 1981 -91 1556 -91 
Q 1019 -91 701 211 
Q 384 513 384 1019 
Q 384 1609 779 1909 
Q 1175 2209 1959 2209 
L 2766 2209 
L 2766 2266 
Q 2766 2663 2505 2880 
Q 2244 3097 1772 3097 
Q 1472 3097 1187 3025 
Q 903 2953 641 2809 
L 641 3341 
Q 956 3463 1253 3523 
Q 1550 3584 1831 3584 
Q 2591 3584 2966 3190 
Q 3341 2797 3341 1997 
z
" transform="scale(0.015625)"/>
       <path id="DejaVuSans-74" d="M 1172 4494 
L 1172 3500 
L 2356 3500 
L 2356 3053 
L 1172 3053 
L 1172 1153 
Q 1172 725 1289 603 
Q 1406 481 1766 481 
L 2356 481 
L 2356 0 
L 1766 0 
Q 1100 0 847 248 
Q 594 497 594 1153 
L 594 3053 
L 172 3053 
L 172 3500 
L 594 3500 
L 594 4494 
L 1172 4494 
z
" transform="scale(0.015625)"/>
       <path id="DejaVuSans-20" transform="scale(0.015625)"/>
       <path id="DejaVuSans-51" d="M 2522 4238 
Q 1834 4238 1429 3725 
Q 1025 3213 1025 2328 
Q 1025 1447 1429 934 
Q 1834 422 2522 422 
Q 3209 422 3611 934 
Q 4013 1447 4013 2328 
Q 4013 3213 3611 3725 
Q 3209 4238 2522 4238 
z
M 3406 84 
L 4238 -825 
L 3475 -825 
L 2784 -78 
Q 2681 -84 2626 -87 
Q 2572 -91 2522 -91 
Q 1538 -91 948 567 
Q 359 1225 359 2328 
Q 359 3434 948 4092 
Q 1538 4750 2522 4750 
Q 3503 4750 4090 4092 
Q 4678 3434 4678 2328 
Q 4678 1516 4351 937 
Q 4025 359 3406 84 
z
" transform="scale(0.015625)"/>
       <path id="DejaVuSans-75" d="M 544 1381 
L 544 3500 
L 1119 3500 
L 1119 1403 
Q 1119 906 1312 657 
Q 1506 409 1894 409 
Q 2359 409 2629 706 
Q 2900 1003 2900 1516 
L 2900 3500 
L 3475 3500 
L 3475 0 
L 2900 0 
L 2900 538 
Q 2691 219 2414 64 
Q 2138 -91 1772 -91 
Q 1169 -91 856 284 
Q 544 659 544 1381 
z
M 1991 3584 
L 1991 3584 
z
" transform="scale(0.015625)"/>
       <path id="DejaVuSans-6e" d="M 3513 2113 
L 3513 0 
L 2938 0 
L 2938 2094 
Q 2938 2591 2744 2837 
Q 2550 3084 2163 3084 
Q 1697 3084 1428 2787 
Q 1159 2491 1159 1978 
L 1159 0 
L 581 0 
L 581 3500 
L 1159 3500 
L 1159 2956 
Q 1366 3272 1645 3428 
Q 1925 3584 2291 3584 
Q 2894 3584 3203 3211 
Q 3513 2838 3513 2113 
z
" transform="scale(0.015625)"/>
       <path id="DejaVuSans-79" d="M 2059 -325 
Q 1816 -950 1584 -1140 
Q 1353 -1331 966 -1331 
L 506 -1331 
L 506 -850 
L 844 -850 
Q 1081 -850 1212 -737 
Q 1344 -625 1503 -206 
L 1606 56 
L 191 3500 
L 800 3500 
L 1894 763 
L 2988 3500 
L 3597 3500 
L 2059 -325 
z
" transform="scale(0.015625)"/>
      </defs>
      <use xlink:href="#DejaVuSans-50"/>
      <use xlink:href="#DejaVuSans-72" x="58.552734"/>
      <use xlink:href="#DejaVuSans-65" x="97.416016"/>
      <use xlink:href="#DejaVuSans-64" x="158.939453"/>
      <use xlink:href="#DejaVuSans-69" x="222.416016"/>
      <use xlink:href="#DejaVuSans-63" x="250.199219"/>
      <use xlink:href="#DejaVuSans-61" x="305.179688"/>
      <use xlink:href="#DejaVuSans-74" x="366.458984"/>
      <use xlink:href="#DejaVuSans-65" x="405.667969"/>
      <use xlink:href="#DejaVuSans-20" x="467.191406"/>
      <use xlink:href="#DejaVuSans-51" x="498.978516"/>
      <use xlink:href="#DejaVuSans-75" x="577.689453"/>
      <use xlink:href="#DejaVuSans-61" x="641.068359"/>
      <use xlink:href="#DejaVuSans-6e" x="702.347656"/>
      <use xlink:href="#DejaVuSans-74" x="765.726562"/>
      <use xlink:href="#DejaVuSans-69" x="804.935547"/>
      <use xlink:href="#DejaVuSans-74" x="832.71875"/>
      <use xlink:href="#DejaVuSans-79" x="871.927734"/>
     </g>
    </g>
   </g>
   <g id="matplotlib.axis_2">
    <g id="ytick_1">
     <g id="line2d_9">
      <defs>
       <path id="m5df18eecbe" d="M 0 0 
L -3.5 0 
" style="stroke: #000000; stroke-width: 0.8"/>
      </defs>
      <g>
       <use xlink:href="#m5df18eecbe" x="57.6" y="58.455273" style="stroke: #000000; stroke-width: 0.8"/>
      </g>
     </g>
     <g id="text_10">
      <!-- relates to -->
      <g transform="translate(3.154688 62.254491) scale(0.1 -0.1)">
       <defs>
        <path id="DejaVuSans-6c" d="M 603 4863 
L 1178 4863 
L 1178 0 
L 603 0 
L 603 4863 
z
" transform="scale(0.015625)"/>
        <path id="DejaVuSans-73" d="M 2834 3397 
L 2834 2853 
Q 2591 2978 2328 3040 
Q 2066 3103 1784 3103 
Q 1356 3103 1142 2972 
Q 928 2841 928 2578 
Q 928 2378 1081 2264 
Q 1234 2150 1697 2047 
L 1894 2003 
Q 2506 1872 2764 1633 
Q 3022 1394 3022 966 
Q 3022 478 2636 193 
Q 2250 -91 1575 -91 
Q 1294 -91 989 -36 
Q 684 19 347 128 
L 347 722 
Q 666 556 975 473 
Q 1284 391 1588 391 
Q 1994 391 2212 530 
Q 2431 669 2431 922 
Q 2431 1156 2273 1281 
Q 2116 1406 1581 1522 
L 1381 1569 
Q 847 1681 609 1914 
Q 372 2147 372 2553 
Q 372 3047 722 3315 
Q 1072 3584 1716 3584 
Q 2034 3584 2315 3537 
Q 2597 3491 2834 3397 
z
" transform="scale(0.015625)"/>
        <path id="DejaVuSans-6f" d="M 1959 3097 
Q 1497 3097 1228 2736 
Q 959 2375 959 1747 
Q 959 1119 1226 758 
Q 1494 397 1959 397 
Q 2419 397 2687 759 
Q 2956 1122 2956 1747 
Q 2956 2369 2687 2733 
Q 2419 3097 1959 3097 
z
M 1959 3584 
Q 2709 3584 3137 3096 
Q 3566 2609 3566 1747 
Q 3566 888 3137 398 
Q 2709 -91 1959 -91 
Q 1206 -91 779 398 
Q 353 888 353 1747 
Q 353 2609 779 3096 
Q 1206 3584 1959 3584 
z
" transform="scale(0.015625)"/>
       </defs>
       <use xlink:href="#DejaVuSans-72"/>
       <use xlink:href="#DejaVuSans-65" x="38.863281"/>
       <use xlink:href="#DejaVuSans-6c" x="100.386719"/>
       <use xlink:href="#DejaVuSans-61" x="128.169922"/>
       <use xlink:href="#DejaVuSans-74" x="189.449219"/>
       <use xlink:href="#DejaVuSans-65" x="228.658203"/>
       <use xlink:href="#DejaVuSans-73" x="290.181641"/>
       <use xlink:href="#DejaVuSans-20" x="342.28125"/>
       <use xlink:href="#DejaVuSans-74" x="374.068359"/>
       <use xlink:href="#DejaVuSans-6f" x="413.277344"/>
      </g>
     </g>
    </g>
    <g id="ytick_2">
     <g id="line2d_10">
      <g>
       <use xlink:href="#m5df18eecbe" x="57.6" y="70.673455" style="stroke: #000000; stroke-width: 0.8"/>
      </g>
     </g>
     <g id="text_11">
      <!-- is related to -->
      <g transform="translate(-9.15 74.472673) scale(0.1 -0.1)">
       <use xlink:href="#DejaVuSans-69"/>
       <use xlink:href="#DejaVuSans-73" x="27.783203"/>
       <use xlink:href="#DejaVuSans-20" x="79.882812"/>
       <use xlink:href="#DejaVuSans-72" x="111.669922"/>
       <use xlink:href="#DejaVuSans-65" x="150.533203"/>
       <use xlink:href="#DejaVuSans-6c" x="212.056641"/>
       <use xlink:href="#DejaVuSans-61" x="239.839844"/>
       <use xlink:href="#DejaVuSans-74" x="301.119141"/>
       <use xlink:href="#DejaVuSans-65" x="340.328125"/>
       <use xlink:href="#DejaVuSans-64" x="401.851562"/>
       <use xlink:href="#DejaVuSans-20" x="465.328125"/>
       <use xlink:href="#DejaVuSans-74" x="497.115234"/>
       <use xlink:href="#DejaVuSans-6f" x="536.324219"/>
      </g>
     </g>
    </g>
    <g id="ytick_3">
     <g id="line2d_11">
      <g>
       <use xlink:href="#m5df18eecbe" x="57.6" y="82.891636" style="stroke: #000000; stroke-width: 0.8"/>
      </g>
     </g>
     <g id="text_12">
      <!-- studies -->
      <g transform="translate(14.64375 86.690855) scale(0.1 -0.1)">
       <use xlink:href="#DejaVuSans-73"/>
       <use xlink:href="#DejaVuSans-74" x="52.099609"/>
       <use xlink:href="#DejaVuSans-75" x="91.308594"/>
       <use xlink:href="#DejaVuSans-64" x="154.6875"/>
       <use xlink:href="#DejaVuSans-69" x="218.164062"/>
       <use xlink:href="#DejaVuSans-65" x="245.947266"/>
       <use xlink:href="#DejaVuSans-73" x="307.470703"/>
      </g>
     </g>
    </g>
    <g id="ytick_4">
     <g id="line2d_12">
      <g>
       <use xlink:href="#m5df18eecbe" x="57.6" y="95.109818" style="stroke: #000000; stroke-width: 0.8"/>
      </g>
     </g>
     <g id="text_13">
      <!-- describes -->
      <g transform="translate(2.790625 98.909037) scale(0.1 -0.1)">
       <defs>
        <path id="DejaVuSans-62" d="M 3116 1747 
Q 3116 2381 2855 2742 
Q 2594 3103 2138 3103 
Q 1681 3103 1420 2742 
Q 1159 2381 1159 1747 
Q 1159 1113 1420 752 
Q 1681 391 2138 391 
Q 2594 391 2855 752 
Q 3116 1113 3116 1747 
z
M 1159 2969 
Q 1341 3281 1617 3432 
Q 1894 3584 2278 3584 
Q 2916 3584 3314 3078 
Q 3713 2572 3713 1747 
Q 3713 922 3314 415 
Q 2916 -91 2278 -91 
Q 1894 -91 1617 61 
Q 1341 213 1159 525 
L 1159 0 
L 581 0 
L 581 4863 
L 1159 4863 
L 1159 2969 
z
" transform="scale(0.015625)"/>
       </defs>
       <use xlink:href="#DejaVuSans-64"/>
       <use xlink:href="#DejaVuSans-65" x="63.476562"/>
       <use xlink:href="#DejaVuSans-73" x="125"/>
       <use xlink:href="#DejaVuSans-63" x="177.099609"/>
       <use xlink:href="#DejaVuSans-72" x="232.080078"/>
       <use xlink:href="#DejaVuSans-69" x="273.193359"/>
       <use xlink:href="#DejaVuSans-62" x="300.976562"/>
       <use xlink:href="#DejaVuSans-65" x="364.453125"/>
       <use xlink:href="#DejaVuSans-73" x="425.976562"/>
      </g>
     </g>
    </g>
    <g id="ytick_5">
     <g id="line2d_13">
      <g>
       <use xlink:href="#m5df18eecbe" x="57.6" y="107.328" style="stroke: #000000; stroke-width: 0.8"/>
      </g>
     </g>
     <g id="text_14">
      <!-- interacts with -->
      <g transform="translate(-17.848437 111.127219) scale(0.1 -0.1)">
       <defs>
        <path id="DejaVuSans-77" d="M 269 3500 
L 844 3500 
L 1563 769 
L 2278 3500 
L 2956 3500 
L 3675 769 
L 4391 3500 
L 4966 3500 
L 4050 0 
L 3372 0 
L 2619 2869 
L 1863 0 
L 1184 0 
L 269 3500 
z
" transform="scale(0.015625)"/>
        <path id="DejaVuSans-68" d="M 3513 2113 
L 3513 0 
L 2938 0 
L 2938 2094 
Q 2938 2591 2744 2837 
Q 2550 3084 2163 3084 
Q 1697 3084 1428 2787 
Q 1159 2491 1159 1978 
L 1159 0 
L 581 0 
L 581 4863 
L 1159 4863 
L 1159 2956 
Q 1366 3272 1645 3428 
Q 1925 3584 2291 3584 
Q 2894 3584 3203 3211 
Q 3513 2838 3513 2113 
z
" transform="scale(0.015625)"/>
       </defs>
       <use xlink:href="#DejaVuSans-69"/>
       <use xlink:href="#DejaVuSans-6e" x="27.783203"/>
       <use xlink:href="#DejaVuSans-74" x="91.162109"/>
       <use xlink:href="#DejaVuSans-65" x="130.371094"/>
       <use xlink:href="#DejaVuSans-72" x="191.894531"/>
       <use xlink:href="#DejaVuSans-61" x="233.007812"/>
       <use xlink:href="#DejaVuSans-63" x="294.287109"/>
       <use xlink:href="#DejaVuSans-74" x="349.267578"/>
       <use xlink:href="#DejaVuSans-73" x="388.476562"/>
       <use xlink:href="#DejaVuSans-20" x="440.576172"/>
       <use xlink:href="#DejaVuSans-77" x="472.363281"/>
       <use xlink:href="#DejaVuSans-69" x="554.150391"/>
       <use xlink:href="#DejaVuSans-74" x="581.933594"/>
       <use xlink:href="#DejaVuSans-68" x="621.142578"/>
      </g>
     </g>
    </g>
    <g id="ytick_6">
     <g id="line2d_14">
      <g>
       <use xlink:href="#m5df18eecbe" x="57.6" y="119.546182" style="stroke: #000000; stroke-width: 0.8"/>
      </g>
     </g>
     <g id="text_15">
      <!-- is a -->
      <g transform="translate(33.30625 123.345401) scale(0.1 -0.1)">
       <use xlink:href="#DejaVuSans-69"/>
       <use xlink:href="#DejaVuSans-73" x="27.783203"/>
       <use xlink:href="#DejaVuSans-20" x="79.882812"/>
       <use xlink:href="#DejaVuSans-61" x="111.669922"/>
      </g>
     </g>
    </g>
    <g id="ytick_7">
     <g id="line2d_15">
      <g>
       <use xlink:href="#m5df18eecbe" x="57.6" y="131.764364" style="stroke: #000000; stroke-width: 0.8"/>
      </g>
     </g>
     <g id="text_16">
      <!-- utilizes -->
      <g transform="translate(15.396875 135.563582) scale(0.1 -0.1)">
       <defs>
        <path id="DejaVuSans-7a" d="M 353 3500 
L 3084 3500 
L 3084 2975 
L 922 459 
L 3084 459 
L 3084 0 
L 275 0 
L 275 525 
L 2438 3041 
L 353 3041 
L 353 3500 
z
" transform="scale(0.015625)"/>
       </defs>
       <use xlink:href="#DejaVuSans-75"/>
       <use xlink:href="#DejaVuSans-74" x="63.378906"/>
       <use xlink:href="#DejaVuSans-69" x="102.587891"/>
       <use xlink:href="#DejaVuSans-6c" x="130.371094"/>
       <use xlink:href="#DejaVuSans-69" x="158.154297"/>
       <use xlink:href="#DejaVuSans-7a" x="185.9375"/>
       <use xlink:href="#DejaVuSans-65" x="238.427734"/>
       <use xlink:href="#DejaVuSans-73" x="299.951172"/>
      </g>
     </g>
    </g>
    <g id="ytick_8">
     <g id="line2d_16">
      <g>
       <use xlink:href="#m5df18eecbe" x="57.6" y="143.982545" style="stroke: #000000; stroke-width: 0.8"/>
      </g>
     </g>
     <g id="text_17">
      <!-- is described by -->
      <g transform="translate(-24.959375 147.781764) scale(0.1 -0.1)">
       <use xlink:href="#DejaVuSans-69"/>
       <use xlink:href="#DejaVuSans-73" x="27.783203"/>
       <use xlink:href="#DejaVuSans-20" x="79.882812"/>
       <use xlink:href="#DejaVuSans-64" x="111.669922"/>
       <use xlink:href="#DejaVuSans-65" x="175.146484"/>
       <use xlink:href="#DejaVuSans-73" x="236.669922"/>
       <use xlink:href="#DejaVuSans-63" x="288.769531"/>
       <use xlink:href="#DejaVuSans-72" x="343.75"/>
       <use xlink:href="#DejaVuSans-69" x="384.863281"/>
       <use xlink:href="#DejaVuSans-62" x="412.646484"/>
       <use xlink:href="#DejaVuSans-65" x="476.123047"/>
       <use xlink:href="#DejaVuSans-64" x="537.646484"/>
       <use xlink:href="#DejaVuSans-20" x="601.123047"/>
       <use xlink:href="#DejaVuSans-62" x="632.910156"/>
       <use xlink:href="#DejaVuSans-79" x="696.386719"/>
      </g>
     </g>
    </g>
    <g id="ytick_9">
     <g id="line2d_17">
      <g>
       <use xlink:href="#m5df18eecbe" x="57.6" y="156.200727" style="stroke: #000000; stroke-width: 0.8"/>
      </g>
     </g>
     <g id="text_18">
      <!-- is a branch of -->
      <g transform="translate(-17.45 159.999946) scale(0.1 -0.1)">
       <defs>
        <path id="DejaVuSans-66" d="M 2375 4863 
L 2375 4384 
L 1825 4384 
Q 1516 4384 1395 4259 
Q 1275 4134 1275 3809 
L 1275 3500 
L 2222 3500 
L 2222 3053 
L 1275 3053 
L 1275 0 
L 697 0 
L 697 3053 
L 147 3053 
L 147 3500 
L 697 3500 
L 697 3744 
Q 697 4328 969 4595 
Q 1241 4863 1831 4863 
L 2375 4863 
z
" transform="scale(0.015625)"/>
       </defs>
       <use xlink:href="#DejaVuSans-69"/>
       <use xlink:href="#DejaVuSans-73" x="27.783203"/>
       <use xlink:href="#DejaVuSans-20" x="79.882812"/>
       <use xlink:href="#DejaVuSans-61" x="111.669922"/>
       <use xlink:href="#DejaVuSans-20" x="172.949219"/>
       <use xlink:href="#DejaVuSans-62" x="204.736328"/>
       <use xlink:href="#DejaVuSans-72" x="268.212891"/>
       <use xlink:href="#DejaVuSans-61" x="309.326172"/>
       <use xlink:href="#DejaVuSans-6e" x="370.605469"/>
       <use xlink:href="#DejaVuSans-63" x="433.984375"/>
       <use xlink:href="#DejaVuSans-68" x="488.964844"/>
       <use xlink:href="#DejaVuSans-20" x="552.34375"/>
       <use xlink:href="#DejaVuSans-6f" x="584.130859"/>
       <use xlink:href="#DejaVuSans-66" x="645.3125"/>
      </g>
     </g>
    </g>
    <g id="ytick_10">
     <g id="line2d_18">
      <g>
       <use xlink:href="#m5df18eecbe" x="57.6" y="168.418909" style="stroke: #000000; stroke-width: 0.8"/>
      </g>
     </g>
     <g id="text_19">
      <!-- uses -->
      <g transform="translate(27.690625 172.218128) scale(0.1 -0.1)">
       <use xlink:href="#DejaVuSans-75"/>
       <use xlink:href="#DejaVuSans-73" x="63.378906"/>
       <use xlink:href="#DejaVuSans-65" x="115.478516"/>
       <use xlink:href="#DejaVuSans-73" x="177.001953"/>
      </g>
     </g>
    </g>
    <g id="ytick_11">
     <g id="line2d_19">
      <g>
       <use xlink:href="#m5df18eecbe" x="57.6" y="180.637091" style="stroke: #000000; stroke-width: 0.8"/>
      </g>
     </g>
     <g id="text_20">
      <!-- contains -->
      <g transform="translate(8.271875 184.43631) scale(0.1 -0.1)">
       <use xlink:href="#DejaVuSans-63"/>
       <use xlink:href="#DejaVuSans-6f" x="54.980469"/>
       <use xlink:href="#DejaVuSans-6e" x="116.162109"/>
       <use xlink:href="#DejaVuSans-74" x="179.541016"/>
       <use xlink:href="#DejaVuSans-61" x="218.75"/>
       <use xlink:href="#DejaVuSans-69" x="280.029297"/>
       <use xlink:href="#DejaVuSans-6e" x="307.8125"/>
       <use xlink:href="#DejaVuSans-73" x="371.191406"/>
      </g>
     </g>
    </g>
    <g id="ytick_12">
     <g id="line2d_20">
      <g>
       <use xlink:href="#m5df18eecbe" x="57.6" y="192.855273" style="stroke: #000000; stroke-width: 0.8"/>
      </g>
     </g>
     <g id="text_21">
      <!-- is a type of -->
      <g transform="translate(-5.029688 196.654491) scale(0.1 -0.1)">
       <defs>
        <path id="DejaVuSans-70" d="M 1159 525 
L 1159 -1331 
L 581 -1331 
L 581 3500 
L 1159 3500 
L 1159 2969 
Q 1341 3281 1617 3432 
Q 1894 3584 2278 3584 
Q 2916 3584 3314 3078 
Q 3713 2572 3713 1747 
Q 3713 922 3314 415 
Q 2916 -91 2278 -91 
Q 1894 -91 1617 61 
Q 1341 213 1159 525 
z
M 3116 1747 
Q 3116 2381 2855 2742 
Q 2594 3103 2138 3103 
Q 1681 3103 1420 2742 
Q 1159 2381 1159 1747 
Q 1159 1113 1420 752 
Q 1681 391 2138 391 
Q 2594 391 2855 752 
Q 3116 1113 3116 1747 
z
" transform="scale(0.015625)"/>
       </defs>
       <use xlink:href="#DejaVuSans-69"/>
       <use xlink:href="#DejaVuSans-73" x="27.783203"/>
       <use xlink:href="#DejaVuSans-20" x="79.882812"/>
       <use xlink:href="#DejaVuSans-61" x="111.669922"/>
       <use xlink:href="#DejaVuSans-20" x="172.949219"/>
       <use xlink:href="#DejaVuSans-74" x="204.736328"/>
       <use xlink:href="#DejaVuSans-79" x="243.945312"/>
       <use xlink:href="#DejaVuSans-70" x="303.125"/>
       <use xlink:href="#DejaVuSans-65" x="366.601562"/>
       <use xlink:href="#DejaVuSans-20" x="428.125"/>
       <use xlink:href="#DejaVuSans-6f" x="459.912109"/>
       <use xlink:href="#DejaVuSans-66" x="521.09375"/>
      </g>
     </g>
    </g>
    <g id="ytick_13">
     <g id="line2d_21">
      <g>
       <use xlink:href="#m5df18eecbe" x="57.6" y="205.073455" style="stroke: #000000; stroke-width: 0.8"/>
      </g>
     </g>
     <g id="text_22">
      <!-- causes -->
      <g transform="translate(16.064062 208.872673) scale(0.1 -0.1)">
       <use xlink:href="#DejaVuSans-63"/>
       <use xlink:href="#DejaVuSans-61" x="54.980469"/>
       <use xlink:href="#DejaVuSans-75" x="116.259766"/>
       <use xlink:href="#DejaVuSans-73" x="179.638672"/>
       <use xlink:href="#DejaVuSans-65" x="231.738281"/>
       <use xlink:href="#DejaVuSans-73" x="293.261719"/>
      </g>
     </g>
    </g>
    <g id="ytick_14">
     <g id="line2d_22">
      <g>
       <use xlink:href="#m5df18eecbe" x="57.6" y="217.291636" style="stroke: #000000; stroke-width: 0.8"/>
      </g>
     </g>
     <g id="text_23">
      <!-- is based on -->
      <g transform="translate(-6.3875 221.090855) scale(0.1 -0.1)">
       <use xlink:href="#DejaVuSans-69"/>
       <use xlink:href="#DejaVuSans-73" x="27.783203"/>
       <use xlink:href="#DejaVuSans-20" x="79.882812"/>
       <use xlink:href="#DejaVuSans-62" x="111.669922"/>
       <use xlink:href="#DejaVuSans-61" x="175.146484"/>
       <use xlink:href="#DejaVuSans-73" x="236.425781"/>
       <use xlink:href="#DejaVuSans-65" x="288.525391"/>
       <use xlink:href="#DejaVuSans-64" x="350.048828"/>
       <use xlink:href="#DejaVuSans-20" x="413.525391"/>
       <use xlink:href="#DejaVuSans-6f" x="445.3125"/>
       <use xlink:href="#DejaVuSans-6e" x="506.494141"/>
      </g>
     </g>
    </g>
    <g id="ytick_15">
     <g id="line2d_23">
      <g>
       <use xlink:href="#m5df18eecbe" x="57.6" y="229.509818" style="stroke: #000000; stroke-width: 0.8"/>
      </g>
     </g>
     <g id="text_24">
      <!-- is used in -->
      <g transform="translate(3.092188 233.309037) scale(0.1 -0.1)">
       <use xlink:href="#DejaVuSans-69"/>
       <use xlink:href="#DejaVuSans-73" x="27.783203"/>
       <use xlink:href="#DejaVuSans-20" x="79.882812"/>
       <use xlink:href="#DejaVuSans-75" x="111.669922"/>
       <use xlink:href="#DejaVuSans-73" x="175.048828"/>
       <use xlink:href="#DejaVuSans-65" x="227.148438"/>
       <use xlink:href="#DejaVuSans-64" x="288.671875"/>
       <use xlink:href="#DejaVuSans-20" x="352.148438"/>
       <use xlink:href="#DejaVuSans-69" x="383.935547"/>
       <use xlink:href="#DejaVuSans-6e" x="411.71875"/>
      </g>
     </g>
    </g>
    <g id="ytick_16">
     <g id="line2d_24">
      <g>
       <use xlink:href="#m5df18eecbe" x="57.6" y="241.728" style="stroke: #000000; stroke-width: 0.8"/>
      </g>
     </g>
     <g id="text_25">
      <!-- belongs to -->
      <g transform="translate(-1.910938 245.527219) scale(0.1 -0.1)">
       <defs>
        <path id="DejaVuSans-67" d="M 2906 1791 
Q 2906 2416 2648 2759 
Q 2391 3103 1925 3103 
Q 1463 3103 1205 2759 
Q 947 2416 947 1791 
Q 947 1169 1205 825 
Q 1463 481 1925 481 
Q 2391 481 2648 825 
Q 2906 1169 2906 1791 
z
M 3481 434 
Q 3481 -459 3084 -895 
Q 2688 -1331 1869 -1331 
Q 1566 -1331 1297 -1286 
Q 1028 -1241 775 -1147 
L 775 -588 
Q 1028 -725 1275 -790 
Q 1522 -856 1778 -856 
Q 2344 -856 2625 -561 
Q 2906 -266 2906 331 
L 2906 616 
Q 2728 306 2450 153 
Q 2172 0 1784 0 
Q 1141 0 747 490 
Q 353 981 353 1791 
Q 353 2603 747 3093 
Q 1141 3584 1784 3584 
Q 2172 3584 2450 3431 
Q 2728 3278 2906 2969 
L 2906 3500 
L 3481 3500 
L 3481 434 
z
" transform="scale(0.015625)"/>
       </defs>
       <use xlink:href="#DejaVuSans-62"/>
       <use xlink:href="#DejaVuSans-65" x="63.476562"/>
       <use xlink:href="#DejaVuSans-6c" x="125"/>
       <use xlink:href="#DejaVuSans-6f" x="152.783203"/>
       <use xlink:href="#DejaVuSans-6e" x="213.964844"/>
       <use xlink:href="#DejaVuSans-67" x="277.34375"/>
       <use xlink:href="#DejaVuSans-73" x="340.820312"/>
       <use xlink:href="#DejaVuSans-20" x="392.919922"/>
       <use xlink:href="#DejaVuSans-74" x="424.707031"/>
       <use xlink:href="#DejaVuSans-6f" x="463.916016"/>
      </g>
     </g>
    </g>
    <g id="ytick_17">
     <g id="line2d_25">
      <g>
       <use xlink:href="#m5df18eecbe" x="57.6" y="253.946182" style="stroke: #000000; stroke-width: 0.8"/>
      </g>
     </g>
     <g id="text_26">
      <!-- consists of -->
      <g transform="translate(-2.498438 257.745401) scale(0.1 -0.1)">
       <use xlink:href="#DejaVuSans-63"/>
       <use xlink:href="#DejaVuSans-6f" x="54.980469"/>
       <use xlink:href="#DejaVuSans-6e" x="116.162109"/>
       <use xlink:href="#DejaVuSans-73" x="179.541016"/>
       <use xlink:href="#DejaVuSans-69" x="231.640625"/>
       <use xlink:href="#DejaVuSans-73" x="259.423828"/>
       <use xlink:href="#DejaVuSans-74" x="311.523438"/>
       <use xlink:href="#DejaVuSans-73" x="350.732422"/>
       <use xlink:href="#DejaVuSans-20" x="402.832031"/>
       <use xlink:href="#DejaVuSans-6f" x="434.619141"/>
       <use xlink:href="#DejaVuSans-66" x="495.800781"/>
      </g>
     </g>
    </g>
    <g id="ytick_18">
     <g id="line2d_26">
      <g>
       <use xlink:href="#m5df18eecbe" x="57.6" y="266.164364" style="stroke: #000000; stroke-width: 0.8"/>
      </g>
     </g>
     <g id="text_27">
      <!-- exhibits -->
      <g transform="translate(11.33125 269.963582) scale(0.1 -0.1)">
       <defs>
        <path id="DejaVuSans-78" d="M 3513 3500 
L 2247 1797 
L 3578 0 
L 2900 0 
L 1881 1375 
L 863 0 
L 184 0 
L 1544 1831 
L 300 3500 
L 978 3500 
L 1906 2253 
L 2834 3500 
L 3513 3500 
z
" transform="scale(0.015625)"/>
       </defs>
       <use xlink:href="#DejaVuSans-65"/>
       <use xlink:href="#DejaVuSans-78" x="59.773438"/>
       <use xlink:href="#DejaVuSans-68" x="118.953125"/>
       <use xlink:href="#DejaVuSans-69" x="182.332031"/>
       <use xlink:href="#DejaVuSans-62" x="210.115234"/>
       <use xlink:href="#DejaVuSans-69" x="273.591797"/>
       <use xlink:href="#DejaVuSans-74" x="301.375"/>
       <use xlink:href="#DejaVuSans-73" x="340.583984"/>
      </g>
     </g>
    </g>
    <g id="ytick_19">
     <g id="line2d_27">
      <g>
       <use xlink:href="#m5df18eecbe" x="57.6" y="278.382545" style="stroke: #000000; stroke-width: 0.8"/>
      </g>
     </g>
     <g id="text_28">
      <!-- has -->
      <g transform="translate(32.925 282.181764) scale(0.1 -0.1)">
       <use xlink:href="#DejaVuSans-68"/>
       <use xlink:href="#DejaVuSans-61" x="63.378906"/>
       <use xlink:href="#DejaVuSans-73" x="124.658203"/>
      </g>
     </g>
    </g>
    <g id="ytick_20">
     <g id="line2d_28">
      <g>
       <use xlink:href="#m5df18eecbe" x="57.6" y="290.600727" style="stroke: #000000; stroke-width: 0.8"/>
      </g>
     </g>
     <g id="text_29">
      <!-- occurs in -->
      <g transform="translate(5.532812 294.399946) scale(0.1 -0.1)">
       <use xlink:href="#DejaVuSans-6f"/>
       <use xlink:href="#DejaVuSans-63" x="61.181641"/>
       <use xlink:href="#DejaVuSans-63" x="116.162109"/>
       <use xlink:href="#DejaVuSans-75" x="171.142578"/>
       <use xlink:href="#DejaVuSans-72" x="234.521484"/>
       <use xlink:href="#DejaVuSans-73" x="275.634766"/>
       <use xlink:href="#DejaVuSans-20" x="327.734375"/>
       <use xlink:href="#DejaVuSans-69" x="359.521484"/>
       <use xlink:href="#DejaVuSans-6e" x="387.304688"/>
      </g>
     </g>
    </g>
   </g>
   <g id="patch_23">
    <path d="M 57.6 307.584 
L 57.6 41.472 
" style="fill: none; stroke: #000000; stroke-width: 0.8; stroke-linejoin: miter; stroke-linecap: square"/>
   </g>
   <g id="patch_24">
    <path d="M 414.72 307.584 
L 414.72 41.472 
" style="fill: none; stroke: #000000; stroke-width: 0.8; stroke-linejoin: miter; stroke-linecap: square"/>
   </g>
   <g id="patch_25">
    <path d="M 57.6 307.584 
L 414.72 307.584 
" style="fill: none; stroke: #000000; stroke-width: 0.8; stroke-linejoin: miter; stroke-linecap: square"/>
   </g>
   <g id="patch_26">
    <path d="M 57.6 41.472 
L 414.72 41.472 
" style="fill: none; stroke: #000000; stroke-width: 0.8; stroke-linejoin: miter; stroke-linecap: square"/>
   </g>
   <g id="text_30">
    <!-- Top 20 Predicates in tri_1 -->
    <g transform="translate(160.842187 35.472) scale(0.12 -0.12)">
     <defs>
      <path id="DejaVuSans-54" d="M -19 4666 
L 3928 4666 
L 3928 4134 
L 2272 4134 
L 2272 0 
L 1638 0 
L 1638 4134 
L -19 4134 
L -19 4666 
z
" transform="scale(0.015625)"/>
      <path id="DejaVuSans-5f" d="M 3263 -1063 
L 3263 -1509 
L -63 -1509 
L -63 -1063 
L 3263 -1063 
z
" transform="scale(0.015625)"/>
     </defs>
     <use xlink:href="#DejaVuSans-54"/>
     <use xlink:href="#DejaVuSans-6f" x="44.083984"/>
     <use xlink:href="#DejaVuSans-70" x="105.265625"/>
     <use xlink:href="#DejaVuSans-20" x="168.742188"/>
     <use xlink:href="#DejaVuSans-32" x="200.529297"/>
     <use xlink:href="#DejaVuSans-30" x="264.152344"/>
     <use xlink:href="#DejaVuSans-20" x="327.775391"/>
     <use xlink:href="#DejaVuSans-50" x="359.5625"/>
     <use xlink:href="#DejaVuSans-72" x="418.115234"/>
     <use xlink:href="#DejaVuSans-65" x="456.978516"/>
     <use xlink:href="#DejaVuSans-64" x="518.501953"/>
     <use xlink:href="#DejaVuSans-69" x="581.978516"/>
     <use xlink:href="#DejaVuSans-63" x="609.761719"/>
     <use xlink:href="#DejaVuSans-61" x="664.742188"/>
     <use xlink:href="#DejaVuSans-74" x="726.021484"/>
     <use xlink:href="#DejaVuSans-65" x="765.230469"/>
     <use xlink:href="#DejaVuSans-73" x="826.753906"/>
     <use xlink:href="#DejaVuSans-20" x="878.853516"/>
     <use xlink:href="#DejaVuSans-69" x="910.640625"/>
     <use xlink:href="#DejaVuSans-6e" x="938.423828"/>
     <use xlink:href="#DejaVuSans-20" x="1001.802734"/>
     <use xlink:href="#DejaVuSans-74" x="1033.589844"/>
     <use xlink:href="#DejaVuSans-72" x="1072.798828"/>
     <use xlink:href="#DejaVuSans-69" x="1113.912109"/>
     <use xlink:href="#DejaVuSans-5f" x="1141.695312"/>
     <use xlink:href="#DejaVuSans-31" x="1191.695312"/>
    </g>
   </g>
  </g>
 </g>
 <defs>
  <clipPath id="pdfcd55568c">
   <rect x="57.6" y="41.472" width="357.12" height="266.112"/>
  </clipPath>
 </defs>
</svg>
